<svg width="227" height="227" viewBox="0 0 227 227" fill="none" xmlns="http://www.w3.org/2000/svg">
<circle cx="113.5" cy="113.5" r="113.5" fill="white" fill-opacity="0.63"/>
<path d="M67.3158 60H159.684C165.338 60 170.759 62.2546 174.757 66.2679C178.754 70.2812 181 75.7244 181 81.4V145.6C181 151.276 178.754 156.719 174.757 160.732C170.759 164.745 165.338 167 159.684 167H67.3158C61.6625 167 56.2407 164.745 52.2433 160.732C48.2458 156.719 46 151.276 46 145.6V81.4C46 75.7244 48.2458 70.2812 52.2433 66.2679C56.2407 62.2546 61.6625 60 67.3158 60ZM67.3158 67.1333C63.7632 67.1333 60.6368 68.346 58.2211 70.486L113.5 106.367L168.779 70.486C166.363 68.346 163.237 67.1333 159.684 67.1333H67.3158ZM113.5 114.998L54.0289 76.264C53.4605 77.8333 53.1053 79.6167 53.1053 81.4V145.6C53.1053 149.384 54.6024 153.013 57.2674 155.688C59.9324 158.364 63.5469 159.867 67.3158 159.867H159.684C163.453 159.867 167.068 158.364 169.733 155.688C172.398 153.013 173.895 149.384 173.895 145.6V81.4C173.895 79.6167 173.539 77.8333 172.971 76.264L113.5 114.998Z" fill="#5D2E02"/>
</svg>
