<svg width="227" height="227" viewBox="0 0 227 227" fill="none" xmlns="http://www.w3.org/2000/svg">
<circle cx="113.5" cy="113.5" r="113.5" fill="white" fill-opacity="0.63"/>
<path fill-rule="evenodd" clip-rule="evenodd" d="M114 187C154.333 187 187 154.333 187 114C187 73.6675 154.333 41 114 41C73.6675 41 41 73.6675 41 114C41 154.333 73.6675 187 114 187ZM47.0833 114C47.0833 77.0133 77.0133 47.0833 114 47.0833C150.926 47.0833 180.917 77.0133 180.917 114C180.917 143.565 161.754 168.628 135.109 177.267C131.782 177.93 130.565 175.825 130.565 174.055L130.595 170.319C130.626 166.864 130.674 161.681 130.674 155.659C130.674 149.332 128.57 145.378 126.13 143.249C141.095 141.588 156.729 135.949 156.729 110.216C156.729 102.916 154.18 96.8937 149.855 92.2703C150.518 90.6096 152.848 83.7537 149.192 74.5678C149.192 74.5678 143.535 72.7976 130.76 81.442C125.304 79.9743 119.68 79.2298 114.03 79.2277C108.373 79.2338 102.715 79.982 97.3013 81.442C84.5263 72.8037 78.8688 74.5678 78.8688 74.5678C75.2066 83.7537 77.5365 90.6278 78.1996 92.2703C73.7143 97.1634 71.2569 103.579 71.3254 110.216C71.3254 135.949 86.9596 141.667 101.803 143.249C99.9171 144.909 98.1408 147.902 97.5872 152.252C93.706 154.028 84.0822 156.906 78.0597 146.71C78.0597 146.71 74.5131 140.262 67.718 139.836C67.718 139.836 61.148 139.836 67.2739 143.936C67.2739 143.936 71.7087 145.931 74.6956 153.669C74.6956 153.669 78.5768 165.654 97.2039 161.639C97.2039 165.264 97.2526 168.817 97.283 171.25L97.3134 174.067C97.3134 175.837 96.0968 177.948 92.7692 177.279C66.185 168.397 46.9617 143.395 46.9617 114.012L47.0833 114Z" fill="#5D2E02"/>
</svg>
