<svg width="227" height="227" viewBox="0 0 227 227" fill="none" xmlns="http://www.w3.org/2000/svg">
<circle cx="113.5" cy="113.5" r="113.5" fill="white" fill-opacity="0.63"/>
<path d="M130.003 95.5702C126.916 95.5702 124.631 96.3487 122.842 97.3321C122.555 96.3123 121.612 95.5656 120.501 95.7887H106.916C105.573 95.5656 104.485 96.6537 104.899 98.0651V148.146C104.485 149.421 105.573 150.514 106.916 150.423H120.501C121.845 150.514 122.933 149.421 122.933 148.078L122.928 117.811C122.924 117.797 122.873 116.349 123.789 115.352C124.522 114.56 125.783 114.155 127.526 114.155C130.431 114.155 131.724 115.343 132.207 118.002V148.078C131.729 149.421 132.817 150.514 134.16 150.423H148.479C149.822 150.514 150.91 149.421 150.427 148.078V116.991C150.905 101.184 139.646 95.5702 130.003 95.5702ZM146.043 145.87H136.591V118.002C136.591 112.625 133.117 109.292 127.531 109.292C124.371 109.292 121.913 110.221 120.219 112.051C117.865 114.601 118.047 117.833 118.553 118.553V145.87H109.347V100.433H118.07V101.962C118.067 102.418 118.192 102.865 118.431 103.253C118.67 103.641 119.014 103.954 119.423 104.155C119.832 104.356 120.29 104.437 120.743 104.39C121.196 104.343 121.627 104.169 121.986 103.888L122.623 103.396C124.467 101.944 126.375 100.437 130.008 100.437C133.768 100.437 146.047 101.635 146.047 116.996L146.043 145.87ZM91.2359 72.8698C86.1276 72.8698 81.9755 77.0219 81.9755 82.1302C81.9755 87.2385 86.1276 91.3907 91.2359 91.3907C96.3442 91.3907 100.496 87.2385 100.496 82.1302C100.496 77.0219 96.3442 72.8698 91.2359 72.8698ZM91.2359 86.5282C88.8138 86.5282 86.8379 84.5523 86.8379 82.1302C86.8379 79.7081 88.8138 77.7322 91.2359 77.7322C93.658 77.7322 95.6339 79.7081 95.6339 82.1302C95.6339 84.5523 93.658 86.5282 91.2359 86.5282ZM97.7373 95.5656H84.2246C82.8815 95.5656 81.7934 96.6537 82.1303 98.0651V148.146C81.7934 149.421 82.8815 150.514 84.2246 150.423H97.7373C99.0804 150.514 100.169 149.421 100.169 148.078V97.9968C100.169 97.352 99.9124 96.7336 99.4565 96.2777C99.0005 95.8217 98.3821 95.5656 97.7373 95.5656ZM95.7887 145.87H86.6558V100.433H95.7887V145.87Z" fill="#5D2E02"/>
<path d="M114 41C73.7439 41 41 73.7439 41 114C41 154.256 73.7439 187 114 187C154.256 187 187 154.256 187 114C187 73.7439 154.256 41 114 41ZM114 182.138C76.4301 182.138 45.8624 151.57 45.8624 114C45.8624 76.4301 76.4301 45.8624 114 45.8624C151.57 45.8624 182.138 76.4301 182.138 114C182.138 151.57 151.57 182.138 114 182.138Z" fill="#5D2E02"/>
</svg>
