<svg width="44" height="44" viewBox="0 0 44 44" fill="none" xmlns="http://www.w3.org/2000/svg">
<path d="M21.1745 34.8137V38.6335M8.95663 22.0401H5.13788M21.3933 42.176C16.0952 42.176 11.014 40.0713 7.26766 36.325C3.5213 32.5786 1.41663 27.4975 1.41663 22.1993C1.41663 16.9012 3.5213 11.82 7.26766 8.07369C11.014 4.32733 16.0952 2.22266 21.3933 2.22266M21.1745 5.40657V9.22641" stroke="white" stroke-width="2" stroke-linecap="round" stroke-linejoin="round"/>
<path d="M13.8805 8.76819C13.8805 8.87174 13.7965 8.95569 13.693 8.95569C13.5894 8.95569 13.5055 8.87174 13.5055 8.76819C13.5055 8.66464 13.5894 8.58069 13.693 8.58069C13.7965 8.58069 13.8805 8.66463 13.8805 8.76819Z" fill="#B3B3B3" stroke="white" stroke-width="2"/>
<path d="M7.87122 29.163C7.87122 29.2666 7.78727 29.3505 7.68372 29.3505C7.58016 29.3505 7.49622 29.2666 7.49622 29.163C7.49622 29.0595 7.58016 28.9755 7.68372 28.9755C7.78727 28.9755 7.87122 29.0595 7.87122 29.163Z" fill="#B3B3B3" stroke="white" stroke-width="2"/>
<path d="M13.6021 34.8538C13.6021 34.9573 13.5181 35.0413 13.4146 35.0413C13.311 35.0413 13.2271 34.9573 13.2271 34.8538C13.2271 34.7502 13.311 34.6663 13.4146 34.6663C13.5181 34.6663 13.6021 34.7502 13.6021 34.8538Z" fill="#B3B3B3" stroke="white" stroke-width="2"/>
<path d="M7.67297 15.0753C7.67297 15.1789 7.58903 15.2628 7.48547 15.2628C7.38192 15.2628 7.29797 15.1789 7.29797 15.0753C7.29797 14.9718 7.38192 14.8878 7.48547 14.8878C7.58903 14.8878 7.67297 14.9718 7.67297 15.0753Z" fill="#B3B3B3" stroke="white" stroke-width="2"/>
<path d="M26.6139 14.1838C27.8207 14.1838 28.799 13.2055 28.799 11.9987C28.799 10.7919 27.8207 9.8136 26.6139 9.8136C25.4071 9.8136 24.4288 10.7919 24.4288 11.9987C24.4288 13.2055 25.4071 14.1838 26.6139 14.1838Z" stroke="white" stroke-width="2" stroke-linecap="round" stroke-linejoin="round"/>
<path d="M25.6715 1.70483L32.7142 8.70858L31.4413 14.7579M26.6692 16.6375L30.6451 28.3668L25.6715 31.8291L24.9944 42.2941" stroke="white" stroke-width="2" stroke-linecap="round" stroke-linejoin="round"/>
<path d="M42.5833 42.2952L35.7963 26.4742L31.4413 14.7568L26.6692 16.6375L21.2135 23.0725L26.9443 25.0225M35.7963 26.4753L30.645 28.3668" stroke="white" stroke-width="2" stroke-linecap="round" stroke-linejoin="round"/>
</svg>
